<svg id="Réteg_1" data-name="Réteg 1" xmlns="http://www.w3.org/2000/svg" viewBox="0 0 868.63 108"><defs><style>.cls-1{fill:#2e4369;}.cls-2{fill:#00b8fe;}</style></defs><title>fRajztábla 1</title><path class="cls-1" d="M578.24,98.34H555.37c-2.12-14.72-4-29.44-5.92-44.16s-4-29.5-6.12-44.59h20.85c2.16,20.41,4.33,41,6.57,62.08,4-5.16,5.58-10.75,7.83-16,6.41-14.92,12.65-29.92,19-44.88a12.36,12.36,0,0,1,.73-1.3h20.55c2.36,21.15,4.71,42.2,7.18,64.35C635.5,52,643.38,30.57,652.36,9.52h20.53c-12.56,29.79-25,59.24-37.44,88.76H611.8Q608.13,69,604.41,39.52l-1-.16C598.78,49,595,58.92,590.74,68.65S582.5,88.19,578.24,98.34Z"/><path class="cls-2" d="M452.1,9.47h72.47c-12.59,29.82-25,59.28-37.49,88.81a83.42,83.42,0,0,1-12.44,0l32.6-77.47c-.7-1.4-1.9-1.28-3.07-1.28h-29a2.91,2.91,0,0,0-2.53.75c.75,4.83,5.48,8,6.2,13.32L466.21,46.23h20.32c-.2,4.06-2.17,6.89-3.38,10.07H441.4l24.23-23.24Z"/><path class="cls-1" d="M698.25,98.28c1.46-7.73,2.82-15,4.1-21.74,1-.46,1.34-.73,1.62-.71,7.61.7,10.25-.7,13.22-7.55,2.47-5.66,3.24-11.79,4.39-17.8,1.7-8.94,3.14-17.94,7.44-26.16,5-9.56,13-14.34,23.57-15,3.79-.22,7.6,0,12,0-1,8-2.56,15.3-4.07,22.31a3.09,3.09,0,0,1-2.65.74c-6.57,0-9.86,2.37-12.27,8.73-2.66,7-3.52,14.46-4.94,21.76a91.77,91.77,0,0,1-4.08,15.83c-5.57,14.36-15.29,21.65-33.6,20C701.7,98.62,700.4,98.49,698.25,98.28Z"/><path class="cls-1" d="M682.33,9.61h21.31C698.3,39.27,693,68.6,687.7,98.18H666.15C671.58,68.45,677,39,682.33,9.61Z"/><path class="cls-1" d="M851.62,39.76C848.92,25.69,841.47,15.46,828,10c-9-3.61-18.19-3.45-27.44-1.64A43.16,43.16,0,0,0,771.6,27.92a54.64,54.64,0,0,0-7.86,41.51c2.93,14.43,11.36,24.49,25.69,29.06,9.65,3.07,19.28,2.57,29,.14a41,41,0,0,0,23.05-14.77c2.3-3,4.78-5.92,5.25-10.21H824.08c-9.6,8.54-19.49,10.42-29,6.12-5.86-2.65-11.68-11.24-10.66-18.46H850.6a10.79,10.79,0,0,0,.84-2.22C852.23,52.65,852.86,46.23,851.62,39.76Zm-65.89,5.49A24,24,0,0,1,797.67,29c8.25-4.77,18.72-5.36,25.85.31,4.93,3.93,7.41,9,7.25,15.94Z"/><path class="cls-1" d="M8.24,26.38,10.59,8.57H74.8L72.45,26.38H50.87L41.71,97H20.79L30,26.38Z"/><path class="cls-1" d="M119.91,8.57c18.57,0,26.28,10.21,26.28,24.41,0,14.69-6.53,25.9-18.83,31.51L142.93,97H120.3L107.62,68.1h-8L96,97H75.45L86.83,8.57Zm4.58,26.65c0-6.35-4.58-9.09-9.81-9.09h-9.55L102,50.54h8.1C118.86,50.54,124.49,44.06,124.49,35.22Z"/><path class="cls-1" d="M208.57,8.57,227.66,97H206l-2.87-16.31H175.22L168.55,97h-22L188.43,8.57ZM194.84,32.85h-.26l-12.69,31h18.44Z"/><path class="cls-1" d="M253.16,8.57,262.7,67.1H263L287.42,8.57h23L268.59,97H250L230.8,8.57Z"/><path class="cls-1" d="M375.55,8.57,373.2,26.38H338.55l-2.36,18.06h27.33l-2.09,17.18H334.1l-2.35,17.56h37.13L366.53,97H309L320.37,8.57Z"/><path class="cls-1" d="M413.08,8.57l-9.15,70.61h34.26L436,97H380.65L392,8.57Z"/></svg>
